<svg width="25" height="50" viewBox="0 0 25 50" fill="none" xmlns="http://www.w3.org/2000/svg">
  <path
    d="M-2.98122e-07 0C3.28305 -3.91499e-08 6.53395 0.646644 9.56709 1.90301C12.6002 3.15938 15.3562 5.00087 17.6777 7.32233C19.9991 9.6438 21.8406 12.3998 23.097 15.4329C24.3534 18.4661 25 21.717 25 25C25 28.283 24.3534 31.5339 23.097 34.5671C21.8406 37.6002 19.9991 40.3562 17.6777 42.6777C15.3562 44.9991 12.6002 46.8406 9.56708 48.097C6.53394 49.3534 3.28304 50 -1.88745e-06 50L0 25L-2.98122e-07 0Z"
    fill="white" />
</svg>